# xmcd
#
# Track frame offsets: 
#        150
#        15610
#        36931
#        55576
#        67906
#        87650
#        104326
#        121899
#        139823
#        165597
#
# Disc length: 2425 seconds
#
# Revision: 1
# Processed by: cddbd v1.5.2PL0 Copyright (c) Steve Scherf et al.
# Submitted via: ExactAudioCopyFreeDBPlugin 1.0
#
DISCID=7f09770a
DTITLE=Minnie Riperton - Perfect Angel (Deluxe Edition CD 1)
DYEAR=1974
DGENRE=R&B
TTITLE0=Reasons
TTITLE1=It's So Nice (To See Old Friends)
TTITLE2=Take A Little Trip
TTITLE3=Seeing You This Way
TTITLE4=The Edge Of A Dream
TTITLE5=Perfect Angel
TTITLE6=Every Time He Comes Around
TTITLE7=Lovin' You
TTITLE8=Our Lives
TTITLE9=Lovin' You (Single Version with Countdown)
EXTD=
EXTT0=
EXTT1=
EXTT2=
EXTT3=
EXTT4=
EXTT5=
EXTT6=
EXTT7=
EXTT8=
EXTT9=
PLAYORDER=
